<mxfile host="app.diagrams.net" modified="2023-11-22T22:30:50.736Z" agent="Mozilla/5.0 (Windows NT 10.0; Win64; x64) AppleWebKit/537.36 (KHTML, like Gecko) Chrome/116.0.0.0 Safari/537.36" etag="_5LS7EkocpFdGpolpZTn" version="22.1.3" type="device">
  <diagram id="C5RBs43oDa-KdzZeNtuy" name="Page-1">
    <mxGraphModel dx="2620" dy="2147" grid="1" gridSize="10" guides="1" tooltips="1" connect="1" arrows="1" fold="1" page="1" pageScale="1" pageWidth="827" pageHeight="1169" math="0" shadow="0">
      <root>
        <mxCell id="WIyWlLk6GJQsqaUBKTNV-0" />
        <mxCell id="WIyWlLk6GJQsqaUBKTNV-1" parent="WIyWlLk6GJQsqaUBKTNV-0" />
        <mxCell id="aKGmbi95_gkL3lH56iup-8" style="edgeStyle=orthogonalEdgeStyle;rounded=0;orthogonalLoop=1;jettySize=auto;html=1;" edge="1" parent="WIyWlLk6GJQsqaUBKTNV-1" source="WIyWlLk6GJQsqaUBKTNV-6">
          <mxGeometry relative="1" as="geometry">
            <mxPoint x="-385.5" y="180" as="targetPoint" />
          </mxGeometry>
        </mxCell>
        <mxCell id="aKGmbi95_gkL3lH56iup-10" style="edgeStyle=orthogonalEdgeStyle;rounded=0;orthogonalLoop=1;jettySize=auto;html=1;exitX=0;exitY=0.5;exitDx=0;exitDy=0;entryX=0.5;entryY=0;entryDx=0;entryDy=0;" edge="1" parent="WIyWlLk6GJQsqaUBKTNV-1" source="WIyWlLk6GJQsqaUBKTNV-6" target="aKGmbi95_gkL3lH56iup-34">
          <mxGeometry relative="1" as="geometry">
            <mxPoint x="-315.5" y="180" as="targetPoint" />
            <Array as="points">
              <mxPoint x="-314.5" />
              <mxPoint x="-314.5" y="300" />
            </Array>
          </mxGeometry>
        </mxCell>
        <mxCell id="aKGmbi95_gkL3lH56iup-13" style="edgeStyle=orthogonalEdgeStyle;rounded=0;orthogonalLoop=1;jettySize=auto;html=1;exitX=0;exitY=0.5;exitDx=0;exitDy=0;" edge="1" parent="WIyWlLk6GJQsqaUBKTNV-1" source="WIyWlLk6GJQsqaUBKTNV-6">
          <mxGeometry relative="1" as="geometry">
            <mxPoint x="-235.5" y="180" as="targetPoint" />
          </mxGeometry>
        </mxCell>
        <mxCell id="aKGmbi95_gkL3lH56iup-14" style="edgeStyle=orthogonalEdgeStyle;rounded=0;orthogonalLoop=1;jettySize=auto;html=1;exitX=0.5;exitY=1;exitDx=0;exitDy=0;entryX=0.5;entryY=0;entryDx=0;entryDy=0;" edge="1" parent="WIyWlLk6GJQsqaUBKTNV-1" source="WIyWlLk6GJQsqaUBKTNV-6">
          <mxGeometry relative="1" as="geometry">
            <mxPoint x="-110.5" y="1230" as="targetPoint" />
          </mxGeometry>
        </mxCell>
        <mxCell id="aKGmbi95_gkL3lH56iup-22" style="edgeStyle=orthogonalEdgeStyle;rounded=0;orthogonalLoop=1;jettySize=auto;html=1;exitX=1;exitY=0.5;exitDx=0;exitDy=0;" edge="1" parent="WIyWlLk6GJQsqaUBKTNV-1" source="WIyWlLk6GJQsqaUBKTNV-6">
          <mxGeometry relative="1" as="geometry">
            <mxPoint x="44.5" y="180" as="targetPoint" />
          </mxGeometry>
        </mxCell>
        <mxCell id="aKGmbi95_gkL3lH56iup-25" style="edgeStyle=orthogonalEdgeStyle;rounded=0;orthogonalLoop=1;jettySize=auto;html=1;exitX=1;exitY=0.5;exitDx=0;exitDy=0;entryX=0.5;entryY=0;entryDx=0;entryDy=0;" edge="1" parent="WIyWlLk6GJQsqaUBKTNV-1" source="WIyWlLk6GJQsqaUBKTNV-6" target="aKGmbi95_gkL3lH56iup-89">
          <mxGeometry relative="1" as="geometry">
            <mxPoint x="124.5" y="180" as="targetPoint" />
            <Array as="points">
              <mxPoint x="170" />
              <mxPoint x="170" y="160" />
            </Array>
          </mxGeometry>
        </mxCell>
        <mxCell id="aKGmbi95_gkL3lH56iup-26" style="edgeStyle=orthogonalEdgeStyle;rounded=0;orthogonalLoop=1;jettySize=auto;html=1;exitX=1;exitY=0.5;exitDx=0;exitDy=0;entryX=0.5;entryY=0;entryDx=0;entryDy=0;" edge="1" parent="WIyWlLk6GJQsqaUBKTNV-1" source="WIyWlLk6GJQsqaUBKTNV-6" target="aKGmbi95_gkL3lH56iup-90">
          <mxGeometry relative="1" as="geometry">
            <mxPoint x="320" y="140" as="targetPoint" />
            <Array as="points">
              <mxPoint x="320" />
            </Array>
          </mxGeometry>
        </mxCell>
        <mxCell id="aKGmbi95_gkL3lH56iup-27" style="edgeStyle=orthogonalEdgeStyle;rounded=0;orthogonalLoop=1;jettySize=auto;html=1;exitX=1;exitY=0.5;exitDx=0;exitDy=0;entryX=0.5;entryY=0;entryDx=0;entryDy=0;" edge="1" parent="WIyWlLk6GJQsqaUBKTNV-1" source="WIyWlLk6GJQsqaUBKTNV-6" target="aKGmbi95_gkL3lH56iup-91">
          <mxGeometry relative="1" as="geometry">
            <mxPoint x="370" y="180" as="targetPoint" />
            <Array as="points">
              <mxPoint x="440" />
              <mxPoint x="440" y="190" />
            </Array>
          </mxGeometry>
        </mxCell>
        <mxCell id="aKGmbi95_gkL3lH56iup-32" style="edgeStyle=orthogonalEdgeStyle;rounded=0;orthogonalLoop=1;jettySize=auto;html=1;exitX=1;exitY=0.5;exitDx=0;exitDy=0;entryX=0.5;entryY=0;entryDx=0;entryDy=0;" edge="1" parent="WIyWlLk6GJQsqaUBKTNV-1" source="WIyWlLk6GJQsqaUBKTNV-6" target="aKGmbi95_gkL3lH56iup-92">
          <mxGeometry relative="1" as="geometry">
            <mxPoint x="500" y="180" as="targetPoint" />
            <Array as="points">
              <mxPoint x="560" />
              <mxPoint x="560" y="180" />
              <mxPoint x="570" y="180" />
            </Array>
          </mxGeometry>
        </mxCell>
        <mxCell id="WIyWlLk6GJQsqaUBKTNV-6" value="Opção escolhida:" style="rhombus;whiteSpace=wrap;html=1;shadow=0;fontFamily=Helvetica;fontSize=12;align=center;strokeWidth=1;spacing=6;spacingTop=-4;" parent="WIyWlLk6GJQsqaUBKTNV-1" vertex="1">
          <mxGeometry x="-165.5" y="-40" width="120" height="80" as="geometry" />
        </mxCell>
        <mxCell id="aKGmbi95_gkL3lH56iup-4" style="edgeStyle=orthogonalEdgeStyle;rounded=0;orthogonalLoop=1;jettySize=auto;html=1;exitX=0.5;exitY=1;exitDx=0;exitDy=0;entryX=0.5;entryY=0;entryDx=0;entryDy=0;" edge="1" parent="WIyWlLk6GJQsqaUBKTNV-1" source="aKGmbi95_gkL3lH56iup-0" target="aKGmbi95_gkL3lH56iup-2">
          <mxGeometry relative="1" as="geometry" />
        </mxCell>
        <mxCell id="aKGmbi95_gkL3lH56iup-0" value="Chama MostrarMenu():" style="rounded=1;whiteSpace=wrap;html=1;" vertex="1" parent="WIyWlLk6GJQsqaUBKTNV-1">
          <mxGeometry x="-195.5" y="-220" width="120" height="60" as="geometry" />
        </mxCell>
        <mxCell id="aKGmbi95_gkL3lH56iup-1" value="Fim" style="ellipse;whiteSpace=wrap;html=1;aspect=fixed;" vertex="1" parent="WIyWlLk6GJQsqaUBKTNV-1">
          <mxGeometry x="-150.5" y="1230" width="80" height="80" as="geometry" />
        </mxCell>
        <mxCell id="aKGmbi95_gkL3lH56iup-7" style="edgeStyle=orthogonalEdgeStyle;rounded=0;orthogonalLoop=1;jettySize=auto;html=1;exitX=0.5;exitY=1;exitDx=0;exitDy=0;entryX=0.5;entryY=0;entryDx=0;entryDy=0;" edge="1" parent="WIyWlLk6GJQsqaUBKTNV-1" source="aKGmbi95_gkL3lH56iup-2" target="WIyWlLk6GJQsqaUBKTNV-6">
          <mxGeometry relative="1" as="geometry" />
        </mxCell>
        <mxCell id="aKGmbi95_gkL3lH56iup-2" value="Entrada de escolha de opção:" style="shape=parallelogram;perimeter=parallelogramPerimeter;whiteSpace=wrap;html=1;fixedSize=1;" vertex="1" parent="WIyWlLk6GJQsqaUBKTNV-1">
          <mxGeometry x="-195.5" y="-130" width="194" height="70" as="geometry" />
        </mxCell>
        <mxCell id="aKGmbi95_gkL3lH56iup-15" value="9" style="text;html=1;align=center;verticalAlign=middle;resizable=0;points=[];autosize=1;strokeColor=none;fillColor=none;" vertex="1" parent="WIyWlLk6GJQsqaUBKTNV-1">
          <mxGeometry x="-150.5" y="1140" width="30" height="30" as="geometry" />
        </mxCell>
        <mxCell id="aKGmbi95_gkL3lH56iup-18" value="1" style="text;html=1;align=center;verticalAlign=middle;resizable=0;points=[];autosize=1;strokeColor=none;fillColor=none;" vertex="1" parent="WIyWlLk6GJQsqaUBKTNV-1">
          <mxGeometry x="-415.5" y="58" width="30" height="30" as="geometry" />
        </mxCell>
        <mxCell id="aKGmbi95_gkL3lH56iup-19" value="2" style="text;html=1;align=center;verticalAlign=middle;resizable=0;points=[];autosize=1;strokeColor=none;fillColor=none;" vertex="1" parent="WIyWlLk6GJQsqaUBKTNV-1">
          <mxGeometry x="-340.5" y="58" width="30" height="30" as="geometry" />
        </mxCell>
        <mxCell id="aKGmbi95_gkL3lH56iup-20" value="3" style="text;html=1;align=center;verticalAlign=middle;resizable=0;points=[];autosize=1;strokeColor=none;fillColor=none;" vertex="1" parent="WIyWlLk6GJQsqaUBKTNV-1">
          <mxGeometry x="-260.5" y="58" width="30" height="30" as="geometry" />
        </mxCell>
        <mxCell id="aKGmbi95_gkL3lH56iup-24" value="4" style="text;html=1;align=center;verticalAlign=middle;resizable=0;points=[];autosize=1;strokeColor=none;fillColor=none;" vertex="1" parent="WIyWlLk6GJQsqaUBKTNV-1">
          <mxGeometry x="19.5" y="58" width="30" height="30" as="geometry" />
        </mxCell>
        <mxCell id="aKGmbi95_gkL3lH56iup-28" value="5" style="text;html=1;align=center;verticalAlign=middle;resizable=0;points=[];autosize=1;strokeColor=none;fillColor=none;" vertex="1" parent="WIyWlLk6GJQsqaUBKTNV-1">
          <mxGeometry x="139.5" y="58" width="30" height="30" as="geometry" />
        </mxCell>
        <mxCell id="aKGmbi95_gkL3lH56iup-29" value="6" style="text;html=1;align=center;verticalAlign=middle;resizable=0;points=[];autosize=1;strokeColor=none;fillColor=none;" vertex="1" parent="WIyWlLk6GJQsqaUBKTNV-1">
          <mxGeometry x="290" y="58" width="30" height="30" as="geometry" />
        </mxCell>
        <mxCell id="aKGmbi95_gkL3lH56iup-30" value="7" style="text;html=1;align=center;verticalAlign=middle;resizable=0;points=[];autosize=1;strokeColor=none;fillColor=none;" vertex="1" parent="WIyWlLk6GJQsqaUBKTNV-1">
          <mxGeometry x="405" y="58" width="30" height="30" as="geometry" />
        </mxCell>
        <mxCell id="aKGmbi95_gkL3lH56iup-31" value="8" style="text;html=1;align=center;verticalAlign=middle;resizable=0;points=[];autosize=1;strokeColor=none;fillColor=none;" vertex="1" parent="WIyWlLk6GJQsqaUBKTNV-1">
          <mxGeometry x="530" y="58" width="30" height="30" as="geometry" />
        </mxCell>
        <mxCell id="aKGmbi95_gkL3lH56iup-39" style="edgeStyle=orthogonalEdgeStyle;rounded=0;orthogonalLoop=1;jettySize=auto;html=1;exitX=0.5;exitY=1;exitDx=0;exitDy=0;entryX=0.5;entryY=0;entryDx=0;entryDy=0;" edge="1" parent="WIyWlLk6GJQsqaUBKTNV-1" source="aKGmbi95_gkL3lH56iup-33" target="aKGmbi95_gkL3lH56iup-38">
          <mxGeometry relative="1" as="geometry" />
        </mxCell>
        <mxCell id="aKGmbi95_gkL3lH56iup-33" value="Adicionar():" style="rounded=0;whiteSpace=wrap;html=1;" vertex="1" parent="WIyWlLk6GJQsqaUBKTNV-1">
          <mxGeometry x="-425.5" y="180" width="80" height="50" as="geometry" />
        </mxCell>
        <mxCell id="aKGmbi95_gkL3lH56iup-45" style="edgeStyle=orthogonalEdgeStyle;rounded=0;orthogonalLoop=1;jettySize=auto;html=1;exitX=0.5;exitY=1;exitDx=0;exitDy=0;entryX=0.5;entryY=0;entryDx=0;entryDy=0;" edge="1" parent="WIyWlLk6GJQsqaUBKTNV-1" source="aKGmbi95_gkL3lH56iup-34" target="aKGmbi95_gkL3lH56iup-44">
          <mxGeometry relative="1" as="geometry" />
        </mxCell>
        <mxCell id="aKGmbi95_gkL3lH56iup-34" value="Visualizar():" style="rounded=0;whiteSpace=wrap;html=1;" vertex="1" parent="WIyWlLk6GJQsqaUBKTNV-1">
          <mxGeometry x="-395.5" y="610" width="80" height="50" as="geometry" />
        </mxCell>
        <mxCell id="aKGmbi95_gkL3lH56iup-47" style="edgeStyle=orthogonalEdgeStyle;rounded=0;orthogonalLoop=1;jettySize=auto;html=1;exitX=0.5;exitY=1;exitDx=0;exitDy=0;entryX=0.5;entryY=0;entryDx=0;entryDy=0;" edge="1" parent="WIyWlLk6GJQsqaUBKTNV-1" source="aKGmbi95_gkL3lH56iup-35" target="aKGmbi95_gkL3lH56iup-46">
          <mxGeometry relative="1" as="geometry" />
        </mxCell>
        <mxCell id="aKGmbi95_gkL3lH56iup-35" value="Atualizar():" style="rounded=0;whiteSpace=wrap;html=1;" vertex="1" parent="WIyWlLk6GJQsqaUBKTNV-1">
          <mxGeometry x="-275.5" y="180" width="80" height="50" as="geometry" />
        </mxCell>
        <mxCell id="aKGmbi95_gkL3lH56iup-80" style="edgeStyle=orthogonalEdgeStyle;rounded=0;orthogonalLoop=1;jettySize=auto;html=1;exitX=0.5;exitY=1;exitDx=0;exitDy=0;entryX=0.5;entryY=0;entryDx=0;entryDy=0;" edge="1" parent="WIyWlLk6GJQsqaUBKTNV-1" source="aKGmbi95_gkL3lH56iup-36" target="aKGmbi95_gkL3lH56iup-72">
          <mxGeometry relative="1" as="geometry" />
        </mxCell>
        <mxCell id="aKGmbi95_gkL3lH56iup-36" value="Excluir():" style="rounded=0;whiteSpace=wrap;html=1;" vertex="1" parent="WIyWlLk6GJQsqaUBKTNV-1">
          <mxGeometry x="-1.5" y="180" width="86" height="40" as="geometry" />
        </mxCell>
        <mxCell id="aKGmbi95_gkL3lH56iup-43" style="edgeStyle=orthogonalEdgeStyle;rounded=0;orthogonalLoop=1;jettySize=auto;html=1;exitX=0.5;exitY=1;exitDx=0;exitDy=0;entryX=0.5;entryY=0;entryDx=0;entryDy=0;" edge="1" parent="WIyWlLk6GJQsqaUBKTNV-1" source="aKGmbi95_gkL3lH56iup-38" target="aKGmbi95_gkL3lH56iup-40">
          <mxGeometry relative="1" as="geometry" />
        </mxCell>
        <mxCell id="aKGmbi95_gkL3lH56iup-38" value="Entrada dos dados do livro." style="shape=parallelogram;perimeter=parallelogramPerimeter;whiteSpace=wrap;html=1;fixedSize=1;" vertex="1" parent="WIyWlLk6GJQsqaUBKTNV-1">
          <mxGeometry x="-575.5" y="330" width="180" height="60" as="geometry" />
        </mxCell>
        <mxCell id="aKGmbi95_gkL3lH56iup-121" style="edgeStyle=orthogonalEdgeStyle;rounded=0;orthogonalLoop=1;jettySize=auto;html=1;exitX=0;exitY=0.5;exitDx=0;exitDy=0;entryX=0.106;entryY=0.014;entryDx=0;entryDy=0;entryPerimeter=0;" edge="1" parent="WIyWlLk6GJQsqaUBKTNV-1" target="aKGmbi95_gkL3lH56iup-2">
          <mxGeometry relative="1" as="geometry">
            <mxPoint x="-712" y="-122" as="targetPoint" />
            <mxPoint x="-547.5" y="588" as="sourcePoint" />
            <Array as="points">
              <mxPoint x="-547" y="589" />
              <mxPoint x="-711" y="589" />
              <mxPoint x="-711" y="-129" />
            </Array>
          </mxGeometry>
        </mxCell>
        <mxCell id="aKGmbi95_gkL3lH56iup-40" value="&quot;Livro adicionado com sucesso!&quot;" style="shape=document;whiteSpace=wrap;html=1;boundedLbl=1;" vertex="1" parent="WIyWlLk6GJQsqaUBKTNV-1">
          <mxGeometry x="-545.5" y="550" width="120" height="80" as="geometry" />
        </mxCell>
        <mxCell id="aKGmbi95_gkL3lH56iup-123" style="edgeStyle=orthogonalEdgeStyle;rounded=0;orthogonalLoop=1;jettySize=auto;html=1;exitX=0;exitY=0.75;exitDx=0;exitDy=0;" edge="1" parent="WIyWlLk6GJQsqaUBKTNV-1" source="aKGmbi95_gkL3lH56iup-44">
          <mxGeometry relative="1" as="geometry">
            <mxPoint x="-710" y="590" as="targetPoint" />
          </mxGeometry>
        </mxCell>
        <mxCell id="aKGmbi95_gkL3lH56iup-44" value="Exibe todos os livros salvos." style="shape=document;whiteSpace=wrap;html=1;boundedLbl=1;" vertex="1" parent="WIyWlLk6GJQsqaUBKTNV-1">
          <mxGeometry x="-533" y="960" width="120" height="80" as="geometry" />
        </mxCell>
        <mxCell id="aKGmbi95_gkL3lH56iup-51" style="edgeStyle=orthogonalEdgeStyle;rounded=0;orthogonalLoop=1;jettySize=auto;html=1;exitX=0.5;exitY=1;exitDx=0;exitDy=0;entryX=0.5;entryY=0;entryDx=0;entryDy=0;" edge="1" parent="WIyWlLk6GJQsqaUBKTNV-1" source="aKGmbi95_gkL3lH56iup-46" target="aKGmbi95_gkL3lH56iup-50">
          <mxGeometry relative="1" as="geometry" />
        </mxCell>
        <mxCell id="aKGmbi95_gkL3lH56iup-46" value="Entrada do nome do livro." style="shape=parallelogram;perimeter=parallelogramPerimeter;whiteSpace=wrap;html=1;fixedSize=1;" vertex="1" parent="WIyWlLk6GJQsqaUBKTNV-1">
          <mxGeometry x="-315.5" y="290" width="180" height="70" as="geometry" />
        </mxCell>
        <mxCell id="aKGmbi95_gkL3lH56iup-48" value="Livro salvo no arquivo." style="rounded=0;whiteSpace=wrap;html=1;" vertex="1" parent="WIyWlLk6GJQsqaUBKTNV-1">
          <mxGeometry x="-545.5" y="420" width="120" height="60" as="geometry" />
        </mxCell>
        <mxCell id="aKGmbi95_gkL3lH56iup-52" style="edgeStyle=orthogonalEdgeStyle;rounded=0;orthogonalLoop=1;jettySize=auto;html=1;exitX=0.5;exitY=1;exitDx=0;exitDy=0;" edge="1" parent="WIyWlLk6GJQsqaUBKTNV-1" source="aKGmbi95_gkL3lH56iup-50">
          <mxGeometry relative="1" as="geometry">
            <mxPoint x="-220.5" y="500" as="targetPoint" />
          </mxGeometry>
        </mxCell>
        <mxCell id="aKGmbi95_gkL3lH56iup-50" value="Percorre os livros, procurando pelo nome informado." style="rounded=0;whiteSpace=wrap;html=1;" vertex="1" parent="WIyWlLk6GJQsqaUBKTNV-1">
          <mxGeometry x="-275.5" y="390" width="110" height="40" as="geometry" />
        </mxCell>
        <mxCell id="aKGmbi95_gkL3lH56iup-54" style="edgeStyle=orthogonalEdgeStyle;rounded=0;orthogonalLoop=1;jettySize=auto;html=1;exitX=0.5;exitY=1;exitDx=0;exitDy=0;" edge="1" parent="WIyWlLk6GJQsqaUBKTNV-1" source="aKGmbi95_gkL3lH56iup-53">
          <mxGeometry relative="1" as="geometry">
            <mxPoint x="-174.5" y="960" as="targetPoint" />
            <Array as="points">
              <mxPoint x="-220.5" y="700" />
              <mxPoint x="-174.5" y="700" />
            </Array>
          </mxGeometry>
        </mxCell>
        <mxCell id="aKGmbi95_gkL3lH56iup-53" value="Livro presente?" style="rhombus;whiteSpace=wrap;html=1;" vertex="1" parent="WIyWlLk6GJQsqaUBKTNV-1">
          <mxGeometry x="-275.5" y="500" width="110" height="80" as="geometry" />
        </mxCell>
        <mxCell id="aKGmbi95_gkL3lH56iup-60" value="" style="endArrow=classic;html=1;rounded=0;" edge="1" parent="WIyWlLk6GJQsqaUBKTNV-1">
          <mxGeometry width="50" height="50" relative="1" as="geometry">
            <mxPoint x="-245.5" y="700" as="sourcePoint" />
            <mxPoint x="-245.5" y="790" as="targetPoint" />
          </mxGeometry>
        </mxCell>
        <mxCell id="aKGmbi95_gkL3lH56iup-61" value="Sim" style="text;html=1;align=center;verticalAlign=middle;resizable=0;points=[];autosize=1;strokeColor=none;fillColor=none;" vertex="1" parent="WIyWlLk6GJQsqaUBKTNV-1">
          <mxGeometry x="-285.5" y="740" width="40" height="30" as="geometry" />
        </mxCell>
        <mxCell id="aKGmbi95_gkL3lH56iup-62" value="Não" style="text;html=1;align=center;verticalAlign=middle;resizable=0;points=[];autosize=1;strokeColor=none;fillColor=none;" vertex="1" parent="WIyWlLk6GJQsqaUBKTNV-1">
          <mxGeometry x="-215.5" y="740" width="50" height="30" as="geometry" />
        </mxCell>
        <mxCell id="aKGmbi95_gkL3lH56iup-63" value="" style="endArrow=none;html=1;rounded=0;" edge="1" parent="WIyWlLk6GJQsqaUBKTNV-1">
          <mxGeometry width="50" height="50" relative="1" as="geometry">
            <mxPoint x="-245.5" y="700" as="sourcePoint" />
            <mxPoint x="-215.5" y="700" as="targetPoint" />
            <Array as="points">
              <mxPoint x="-225.5" y="700" />
            </Array>
          </mxGeometry>
        </mxCell>
        <mxCell id="aKGmbi95_gkL3lH56iup-66" style="edgeStyle=orthogonalEdgeStyle;rounded=0;orthogonalLoop=1;jettySize=auto;html=1;exitX=0.5;exitY=1;exitDx=0;exitDy=0;entryX=0.5;entryY=0;entryDx=0;entryDy=0;" edge="1" parent="WIyWlLk6GJQsqaUBKTNV-1" source="aKGmbi95_gkL3lH56iup-64" target="aKGmbi95_gkL3lH56iup-65">
          <mxGeometry relative="1" as="geometry" />
        </mxCell>
        <mxCell id="aKGmbi95_gkL3lH56iup-64" value="Livro editado salvo no arquivo." style="rounded=0;whiteSpace=wrap;html=1;" vertex="1" parent="WIyWlLk6GJQsqaUBKTNV-1">
          <mxGeometry x="-295.5" y="790" width="100" height="40" as="geometry" />
        </mxCell>
        <mxCell id="aKGmbi95_gkL3lH56iup-124" style="edgeStyle=orthogonalEdgeStyle;rounded=0;orthogonalLoop=1;jettySize=auto;html=1;exitX=0;exitY=0.25;exitDx=0;exitDy=0;" edge="1" parent="WIyWlLk6GJQsqaUBKTNV-1" source="aKGmbi95_gkL3lH56iup-65">
          <mxGeometry relative="1" as="geometry">
            <mxPoint x="-690" y="590" as="targetPoint" />
          </mxGeometry>
        </mxCell>
        <mxCell id="aKGmbi95_gkL3lH56iup-65" value="&quot;Livro atualizado&quot;" style="shape=document;whiteSpace=wrap;html=1;boundedLbl=1;" vertex="1" parent="WIyWlLk6GJQsqaUBKTNV-1">
          <mxGeometry x="-315.5" y="890" width="110" height="40" as="geometry" />
        </mxCell>
        <mxCell id="aKGmbi95_gkL3lH56iup-125" style="edgeStyle=orthogonalEdgeStyle;rounded=0;orthogonalLoop=1;jettySize=auto;html=1;exitX=0;exitY=0.25;exitDx=0;exitDy=0;" edge="1" parent="WIyWlLk6GJQsqaUBKTNV-1" source="aKGmbi95_gkL3lH56iup-67">
          <mxGeometry relative="1" as="geometry">
            <mxPoint x="-650" y="590" as="targetPoint" />
            <Array as="points">
              <mxPoint x="-360" y="970" />
              <mxPoint x="-360" y="870" />
              <mxPoint x="-650" y="870" />
            </Array>
          </mxGeometry>
        </mxCell>
        <mxCell id="aKGmbi95_gkL3lH56iup-67" value="&quot;Livro não encontrado.&quot;" style="shape=document;whiteSpace=wrap;html=1;boundedLbl=1;" vertex="1" parent="WIyWlLk6GJQsqaUBKTNV-1">
          <mxGeometry x="-240" y="960" width="119.5" height="50" as="geometry" />
        </mxCell>
        <mxCell id="aKGmbi95_gkL3lH56iup-71" style="edgeStyle=orthogonalEdgeStyle;rounded=0;orthogonalLoop=1;jettySize=auto;html=1;exitX=0.5;exitY=1;exitDx=0;exitDy=0;" edge="1" parent="WIyWlLk6GJQsqaUBKTNV-1" source="aKGmbi95_gkL3lH56iup-72">
          <mxGeometry relative="1" as="geometry">
            <mxPoint x="49.5" y="400" as="targetPoint" />
          </mxGeometry>
        </mxCell>
        <mxCell id="aKGmbi95_gkL3lH56iup-72" value="Percorre os livros, procurando pelo nome informado." style="rounded=0;whiteSpace=wrap;html=1;" vertex="1" parent="WIyWlLk6GJQsqaUBKTNV-1">
          <mxGeometry x="-1.5" y="280" width="110" height="40" as="geometry" />
        </mxCell>
        <mxCell id="aKGmbi95_gkL3lH56iup-82" style="edgeStyle=orthogonalEdgeStyle;rounded=0;orthogonalLoop=1;jettySize=auto;html=1;exitX=1;exitY=1;exitDx=0;exitDy=0;" edge="1" parent="WIyWlLk6GJQsqaUBKTNV-1" source="aKGmbi95_gkL3lH56iup-74">
          <mxGeometry relative="1" as="geometry">
            <mxPoint x="134.5" y="580" as="targetPoint" />
          </mxGeometry>
        </mxCell>
        <mxCell id="aKGmbi95_gkL3lH56iup-74" value="Livro presente?" style="rhombus;whiteSpace=wrap;html=1;" vertex="1" parent="WIyWlLk6GJQsqaUBKTNV-1">
          <mxGeometry x="-5.5" y="400" width="110" height="80" as="geometry" />
        </mxCell>
        <mxCell id="aKGmbi95_gkL3lH56iup-75" value="" style="endArrow=classic;html=1;rounded=0;" edge="1" parent="WIyWlLk6GJQsqaUBKTNV-1">
          <mxGeometry width="50" height="50" relative="1" as="geometry">
            <mxPoint x="4.5" y="470" as="sourcePoint" />
            <mxPoint x="4.5" y="560" as="targetPoint" />
          </mxGeometry>
        </mxCell>
        <mxCell id="aKGmbi95_gkL3lH56iup-76" value="Sim" style="text;html=1;align=center;verticalAlign=middle;resizable=0;points=[];autosize=1;strokeColor=none;fillColor=none;" vertex="1" parent="WIyWlLk6GJQsqaUBKTNV-1">
          <mxGeometry x="-35.5" y="510" width="40" height="30" as="geometry" />
        </mxCell>
        <mxCell id="aKGmbi95_gkL3lH56iup-77" value="" style="endArrow=none;html=1;rounded=0;" edge="1" parent="WIyWlLk6GJQsqaUBKTNV-1">
          <mxGeometry width="50" height="50" relative="1" as="geometry">
            <mxPoint x="4.5" y="470" as="sourcePoint" />
            <mxPoint x="34.5" y="470" as="targetPoint" />
            <Array as="points">
              <mxPoint x="24.5" y="470" />
            </Array>
          </mxGeometry>
        </mxCell>
        <mxCell id="aKGmbi95_gkL3lH56iup-135" style="edgeStyle=orthogonalEdgeStyle;rounded=0;orthogonalLoop=1;jettySize=auto;html=1;exitX=0.75;exitY=1;exitDx=0;exitDy=0;" edge="1" parent="WIyWlLk6GJQsqaUBKTNV-1" source="aKGmbi95_gkL3lH56iup-79">
          <mxGeometry relative="1" as="geometry">
            <mxPoint x="920" y="1060" as="targetPoint" />
            <Array as="points">
              <mxPoint x="41" y="610" />
              <mxPoint x="41" y="1060" />
            </Array>
          </mxGeometry>
        </mxCell>
        <mxCell id="aKGmbi95_gkL3lH56iup-79" value="Livro editado não é salvo no arquivo." style="rounded=0;whiteSpace=wrap;html=1;" vertex="1" parent="WIyWlLk6GJQsqaUBKTNV-1">
          <mxGeometry x="-45.5" y="560" width="104.5" height="50" as="geometry" />
        </mxCell>
        <mxCell id="aKGmbi95_gkL3lH56iup-83" value="Não" style="text;html=1;align=center;verticalAlign=middle;resizable=0;points=[];autosize=1;strokeColor=none;fillColor=none;" vertex="1" parent="WIyWlLk6GJQsqaUBKTNV-1">
          <mxGeometry x="139.5" y="488" width="50" height="30" as="geometry" />
        </mxCell>
        <mxCell id="aKGmbi95_gkL3lH56iup-134" style="edgeStyle=orthogonalEdgeStyle;rounded=0;orthogonalLoop=1;jettySize=auto;html=1;exitX=1;exitY=0.25;exitDx=0;exitDy=0;" edge="1" parent="WIyWlLk6GJQsqaUBKTNV-1" source="aKGmbi95_gkL3lH56iup-88">
          <mxGeometry relative="1" as="geometry">
            <mxPoint x="920" y="970" as="targetPoint" />
            <Array as="points">
              <mxPoint x="570" y="970" />
              <mxPoint x="570" y="970" />
            </Array>
          </mxGeometry>
        </mxCell>
        <mxCell id="aKGmbi95_gkL3lH56iup-88" value="&quot;Livro não encontrado.&quot;" style="shape=document;whiteSpace=wrap;html=1;boundedLbl=1;" vertex="1" parent="WIyWlLk6GJQsqaUBKTNV-1">
          <mxGeometry x="70" y="580" width="109.5" height="50" as="geometry" />
        </mxCell>
        <mxCell id="aKGmbi95_gkL3lH56iup-94" style="edgeStyle=orthogonalEdgeStyle;rounded=0;orthogonalLoop=1;jettySize=auto;html=1;exitX=0.5;exitY=1;exitDx=0;exitDy=0;" edge="1" parent="WIyWlLk6GJQsqaUBKTNV-1" source="aKGmbi95_gkL3lH56iup-89" target="aKGmbi95_gkL3lH56iup-93">
          <mxGeometry relative="1" as="geometry" />
        </mxCell>
        <mxCell id="aKGmbi95_gkL3lH56iup-89" value="ExtratoCategoria():" style="rounded=0;whiteSpace=wrap;html=1;" vertex="1" parent="WIyWlLk6GJQsqaUBKTNV-1">
          <mxGeometry x="120" y="180" width="110" height="50" as="geometry" />
        </mxCell>
        <mxCell id="aKGmbi95_gkL3lH56iup-96" style="edgeStyle=orthogonalEdgeStyle;rounded=0;orthogonalLoop=1;jettySize=auto;html=1;exitX=0.5;exitY=1;exitDx=0;exitDy=0;entryX=0.5;entryY=0;entryDx=0;entryDy=0;" edge="1" parent="WIyWlLk6GJQsqaUBKTNV-1" source="aKGmbi95_gkL3lH56iup-90" target="aKGmbi95_gkL3lH56iup-95">
          <mxGeometry relative="1" as="geometry" />
        </mxCell>
        <mxCell id="aKGmbi95_gkL3lH56iup-90" value="VisualizarCategoria():" style="rounded=0;whiteSpace=wrap;html=1;" vertex="1" parent="WIyWlLk6GJQsqaUBKTNV-1">
          <mxGeometry x="260" y="190" width="120" height="50" as="geometry" />
        </mxCell>
        <mxCell id="aKGmbi95_gkL3lH56iup-106" style="edgeStyle=orthogonalEdgeStyle;rounded=0;orthogonalLoop=1;jettySize=auto;html=1;exitX=0.5;exitY=1;exitDx=0;exitDy=0;" edge="1" parent="WIyWlLk6GJQsqaUBKTNV-1" source="aKGmbi95_gkL3lH56iup-91">
          <mxGeometry relative="1" as="geometry">
            <mxPoint x="600" y="730" as="targetPoint" />
            <Array as="points">
              <mxPoint x="440" y="295" />
              <mxPoint x="601" y="295" />
            </Array>
          </mxGeometry>
        </mxCell>
        <mxCell id="aKGmbi95_gkL3lH56iup-91" value="GastoTotal():" style="rounded=0;whiteSpace=wrap;html=1;" vertex="1" parent="WIyWlLk6GJQsqaUBKTNV-1">
          <mxGeometry x="400" y="200" width="80" height="50" as="geometry" />
        </mxCell>
        <mxCell id="aKGmbi95_gkL3lH56iup-111" style="edgeStyle=orthogonalEdgeStyle;rounded=0;orthogonalLoop=1;jettySize=auto;html=1;exitX=1;exitY=0.5;exitDx=0;exitDy=0;" edge="1" parent="WIyWlLk6GJQsqaUBKTNV-1" source="aKGmbi95_gkL3lH56iup-92">
          <mxGeometry relative="1" as="geometry">
            <mxPoint x="740" y="1100" as="targetPoint" />
          </mxGeometry>
        </mxCell>
        <mxCell id="aKGmbi95_gkL3lH56iup-92" value="&lt;div style=&quot;text-align: start;&quot;&gt;&lt;span style=&quot;background-color: initial;&quot;&gt;VisualizarAutor():&lt;/span&gt;&lt;/div&gt;" style="rounded=0;whiteSpace=wrap;html=1;" vertex="1" parent="WIyWlLk6GJQsqaUBKTNV-1">
          <mxGeometry x="510" y="220" width="120" height="50" as="geometry" />
        </mxCell>
        <mxCell id="aKGmbi95_gkL3lH56iup-136" style="edgeStyle=orthogonalEdgeStyle;rounded=0;orthogonalLoop=1;jettySize=auto;html=1;exitX=1;exitY=0.75;exitDx=0;exitDy=0;" edge="1" parent="WIyWlLk6GJQsqaUBKTNV-1" source="aKGmbi95_gkL3lH56iup-93">
          <mxGeometry relative="1" as="geometry">
            <mxPoint x="930" y="400" as="targetPoint" />
          </mxGeometry>
        </mxCell>
        <mxCell id="aKGmbi95_gkL3lH56iup-93" value="Exibe todos os livros salvos, separados por categoria." style="shape=document;whiteSpace=wrap;html=1;boundedLbl=1;" vertex="1" parent="WIyWlLk6GJQsqaUBKTNV-1">
          <mxGeometry x="170" y="330" width="120" height="80" as="geometry" />
        </mxCell>
        <mxCell id="aKGmbi95_gkL3lH56iup-98" style="edgeStyle=orthogonalEdgeStyle;rounded=0;orthogonalLoop=1;jettySize=auto;html=1;exitX=0.5;exitY=1;exitDx=0;exitDy=0;" edge="1" parent="WIyWlLk6GJQsqaUBKTNV-1" source="aKGmbi95_gkL3lH56iup-95" target="aKGmbi95_gkL3lH56iup-97">
          <mxGeometry relative="1" as="geometry" />
        </mxCell>
        <mxCell id="aKGmbi95_gkL3lH56iup-95" value="Entrada da categoria." style="shape=parallelogram;perimeter=parallelogramPerimeter;whiteSpace=wrap;html=1;fixedSize=1;" vertex="1" parent="WIyWlLk6GJQsqaUBKTNV-1">
          <mxGeometry x="310" y="340" width="140" height="40" as="geometry" />
        </mxCell>
        <mxCell id="aKGmbi95_gkL3lH56iup-103" style="edgeStyle=orthogonalEdgeStyle;rounded=0;orthogonalLoop=1;jettySize=auto;html=1;exitX=0;exitY=1;exitDx=0;exitDy=0;entryX=0.5;entryY=0;entryDx=0;entryDy=0;" edge="1" parent="WIyWlLk6GJQsqaUBKTNV-1" source="aKGmbi95_gkL3lH56iup-97" target="aKGmbi95_gkL3lH56iup-102">
          <mxGeometry relative="1" as="geometry">
            <mxPoint x="340" y="708" as="targetPoint" />
            <Array as="points">
              <mxPoint x="353" y="626" />
              <mxPoint x="341" y="626" />
              <mxPoint x="341" y="708" />
            </Array>
          </mxGeometry>
        </mxCell>
        <mxCell id="aKGmbi95_gkL3lH56iup-105" style="edgeStyle=orthogonalEdgeStyle;rounded=0;orthogonalLoop=1;jettySize=auto;html=1;exitX=1;exitY=0.5;exitDx=0;exitDy=0;" edge="1" parent="WIyWlLk6GJQsqaUBKTNV-1" source="aKGmbi95_gkL3lH56iup-97" target="aKGmbi95_gkL3lH56iup-104">
          <mxGeometry relative="1" as="geometry" />
        </mxCell>
        <mxCell id="aKGmbi95_gkL3lH56iup-97" value="Categoria presente?" style="rhombus;whiteSpace=wrap;html=1;" vertex="1" parent="WIyWlLk6GJQsqaUBKTNV-1">
          <mxGeometry x="325" y="463" width="110" height="80" as="geometry" />
        </mxCell>
        <mxCell id="aKGmbi95_gkL3lH56iup-99" value="Sim" style="text;html=1;align=center;verticalAlign=middle;resizable=0;points=[];autosize=1;strokeColor=none;fillColor=none;" vertex="1" parent="WIyWlLk6GJQsqaUBKTNV-1">
          <mxGeometry x="300" y="540" width="40" height="30" as="geometry" />
        </mxCell>
        <mxCell id="aKGmbi95_gkL3lH56iup-101" value="Não" style="text;html=1;align=center;verticalAlign=middle;resizable=0;points=[];autosize=1;strokeColor=none;fillColor=none;" vertex="1" parent="WIyWlLk6GJQsqaUBKTNV-1">
          <mxGeometry x="480" y="543" width="50" height="30" as="geometry" />
        </mxCell>
        <mxCell id="aKGmbi95_gkL3lH56iup-133" style="edgeStyle=orthogonalEdgeStyle;rounded=0;orthogonalLoop=1;jettySize=auto;html=1;exitX=1;exitY=0.25;exitDx=0;exitDy=0;" edge="1" parent="WIyWlLk6GJQsqaUBKTNV-1" source="aKGmbi95_gkL3lH56iup-102">
          <mxGeometry relative="1" as="geometry">
            <mxPoint x="920" y="1000" as="targetPoint" />
            <Array as="points">
              <mxPoint x="421" y="740" />
              <mxPoint x="421" y="1110" />
              <mxPoint x="660" y="1110" />
              <mxPoint x="660" y="1000" />
            </Array>
          </mxGeometry>
        </mxCell>
        <mxCell id="aKGmbi95_gkL3lH56iup-102" value="Exibe todos os livros da categoria." style="shape=document;whiteSpace=wrap;html=1;boundedLbl=1;" vertex="1" parent="WIyWlLk6GJQsqaUBKTNV-1">
          <mxGeometry x="280" y="730" width="110" height="40" as="geometry" />
        </mxCell>
        <mxCell id="aKGmbi95_gkL3lH56iup-132" style="edgeStyle=orthogonalEdgeStyle;rounded=0;orthogonalLoop=1;jettySize=auto;html=1;exitX=1;exitY=0.5;exitDx=0;exitDy=0;" edge="1" parent="WIyWlLk6GJQsqaUBKTNV-1" source="aKGmbi95_gkL3lH56iup-104">
          <mxGeometry relative="1" as="geometry">
            <mxPoint x="930" y="684.25" as="targetPoint" />
          </mxGeometry>
        </mxCell>
        <mxCell id="aKGmbi95_gkL3lH56iup-104" value="&quot;Não existem livros de tal categoria na biblioteca.&quot;" style="shape=document;whiteSpace=wrap;html=1;boundedLbl=1;" vertex="1" parent="WIyWlLk6GJQsqaUBKTNV-1">
          <mxGeometry x="410" y="650" width="135" height="68" as="geometry" />
        </mxCell>
        <mxCell id="aKGmbi95_gkL3lH56iup-110" style="edgeStyle=orthogonalEdgeStyle;rounded=0;orthogonalLoop=1;jettySize=auto;html=1;exitX=0.5;exitY=1;exitDx=0;exitDy=0;entryX=0.5;entryY=0;entryDx=0;entryDy=0;" edge="1" parent="WIyWlLk6GJQsqaUBKTNV-1" source="aKGmbi95_gkL3lH56iup-108" target="aKGmbi95_gkL3lH56iup-109">
          <mxGeometry relative="1" as="geometry" />
        </mxCell>
        <mxCell id="aKGmbi95_gkL3lH56iup-108" value="Percorre o arquivo somando o custo de cada livro." style="rounded=0;whiteSpace=wrap;html=1;" vertex="1" parent="WIyWlLk6GJQsqaUBKTNV-1">
          <mxGeometry x="540" y="730" width="110" height="60" as="geometry" />
        </mxCell>
        <mxCell id="aKGmbi95_gkL3lH56iup-130" style="edgeStyle=orthogonalEdgeStyle;rounded=0;orthogonalLoop=1;jettySize=auto;html=1;exitX=0;exitY=0.75;exitDx=0;exitDy=0;" edge="1" parent="WIyWlLk6GJQsqaUBKTNV-1" source="aKGmbi95_gkL3lH56iup-109">
          <mxGeometry relative="1" as="geometry">
            <mxPoint x="920" y="910" as="targetPoint" />
          </mxGeometry>
        </mxCell>
        <mxCell id="aKGmbi95_gkL3lH56iup-109" value="&quot;O gasto na biblioteca foi de X reais&quot;" style="shape=document;whiteSpace=wrap;html=1;boundedLbl=1;" vertex="1" parent="WIyWlLk6GJQsqaUBKTNV-1">
          <mxGeometry x="535" y="850" width="120" height="80" as="geometry" />
        </mxCell>
        <mxCell id="aKGmbi95_gkL3lH56iup-112" style="edgeStyle=orthogonalEdgeStyle;rounded=0;orthogonalLoop=1;jettySize=auto;html=1;exitX=0.5;exitY=1;exitDx=0;exitDy=0;" edge="1" parent="WIyWlLk6GJQsqaUBKTNV-1" source="aKGmbi95_gkL3lH56iup-113" target="aKGmbi95_gkL3lH56iup-116">
          <mxGeometry relative="1" as="geometry" />
        </mxCell>
        <mxCell id="aKGmbi95_gkL3lH56iup-113" value="Entrada do nome do autor." style="shape=parallelogram;perimeter=parallelogramPerimeter;whiteSpace=wrap;html=1;fixedSize=1;" vertex="1" parent="WIyWlLk6GJQsqaUBKTNV-1">
          <mxGeometry x="665" y="1090" width="175" height="50" as="geometry" />
        </mxCell>
        <mxCell id="aKGmbi95_gkL3lH56iup-114" style="edgeStyle=orthogonalEdgeStyle;rounded=0;orthogonalLoop=1;jettySize=auto;html=1;exitX=0;exitY=1;exitDx=0;exitDy=0;entryX=0.5;entryY=0;entryDx=0;entryDy=0;" edge="1" parent="WIyWlLk6GJQsqaUBKTNV-1" source="aKGmbi95_gkL3lH56iup-116">
          <mxGeometry relative="1" as="geometry">
            <mxPoint x="690" y="1490" as="targetPoint" />
            <Array as="points">
              <mxPoint x="708" y="1386" />
              <mxPoint x="696" y="1386" />
              <mxPoint x="696" y="1468" />
            </Array>
          </mxGeometry>
        </mxCell>
        <mxCell id="aKGmbi95_gkL3lH56iup-115" style="edgeStyle=orthogonalEdgeStyle;rounded=0;orthogonalLoop=1;jettySize=auto;html=1;exitX=1;exitY=0.5;exitDx=0;exitDy=0;" edge="1" parent="WIyWlLk6GJQsqaUBKTNV-1" source="aKGmbi95_gkL3lH56iup-116">
          <mxGeometry relative="1" as="geometry">
            <mxPoint x="833" y="1410" as="targetPoint" />
          </mxGeometry>
        </mxCell>
        <mxCell id="aKGmbi95_gkL3lH56iup-116" value="Autor presente?" style="rhombus;whiteSpace=wrap;html=1;" vertex="1" parent="WIyWlLk6GJQsqaUBKTNV-1">
          <mxGeometry x="680" y="1223" width="110" height="80" as="geometry" />
        </mxCell>
        <mxCell id="aKGmbi95_gkL3lH56iup-117" value="Sim" style="text;html=1;align=center;verticalAlign=middle;resizable=0;points=[];autosize=1;strokeColor=none;fillColor=none;" vertex="1" parent="WIyWlLk6GJQsqaUBKTNV-1">
          <mxGeometry x="655" y="1300" width="40" height="30" as="geometry" />
        </mxCell>
        <mxCell id="aKGmbi95_gkL3lH56iup-118" value="Não" style="text;html=1;align=center;verticalAlign=middle;resizable=0;points=[];autosize=1;strokeColor=none;fillColor=none;" vertex="1" parent="WIyWlLk6GJQsqaUBKTNV-1">
          <mxGeometry x="835" y="1303" width="50" height="30" as="geometry" />
        </mxCell>
        <mxCell id="aKGmbi95_gkL3lH56iup-129" style="edgeStyle=orthogonalEdgeStyle;rounded=0;orthogonalLoop=1;jettySize=auto;html=1;exitX=1;exitY=0.25;exitDx=0;exitDy=0;" edge="1" parent="WIyWlLk6GJQsqaUBKTNV-1" source="aKGmbi95_gkL3lH56iup-119">
          <mxGeometry relative="1" as="geometry">
            <mxPoint x="920" y="1430.0000000000005" as="targetPoint" />
          </mxGeometry>
        </mxCell>
        <mxCell id="aKGmbi95_gkL3lH56iup-119" value="Exibe todos os livros do autor." style="shape=document;whiteSpace=wrap;html=1;boundedLbl=1;" vertex="1" parent="WIyWlLk6GJQsqaUBKTNV-1">
          <mxGeometry x="640" y="1490" width="110" height="40" as="geometry" />
        </mxCell>
        <mxCell id="aKGmbi95_gkL3lH56iup-126" style="edgeStyle=orthogonalEdgeStyle;rounded=0;orthogonalLoop=1;jettySize=auto;html=1;exitX=1;exitY=0.25;exitDx=0;exitDy=0;entryX=1;entryY=0;entryDx=0;entryDy=0;" edge="1" parent="WIyWlLk6GJQsqaUBKTNV-1" source="aKGmbi95_gkL3lH56iup-120" target="aKGmbi95_gkL3lH56iup-2">
          <mxGeometry relative="1" as="geometry">
            <mxPoint x="1000" y="-130" as="targetPoint" />
          </mxGeometry>
        </mxCell>
        <mxCell id="aKGmbi95_gkL3lH56iup-120" value="&quot;Não existem livros de tal autor/autora na biblioteca.&quot;" style="shape=document;whiteSpace=wrap;html=1;boundedLbl=1;" vertex="1" parent="WIyWlLk6GJQsqaUBKTNV-1">
          <mxGeometry x="770" y="1410" width="135" height="68" as="geometry" />
        </mxCell>
      </root>
    </mxGraphModel>
  </diagram>
</mxfile>
